<svg xmlns="http://www.w3.org/2000/svg" width="200" height="200" viewBox="0 0 200 200">
  <!-- Фон -->
  <rect width="200" height="200" fill="#f5f0ff" rx="10" ry="10"/>
  
  <!-- Обложка книги -->
  <rect x="40" y="50" width="120" height="140" rx="5" ry="5" fill="#5E35B1" stroke="#4527A0" stroke-width="2"/>
  
  <!-- Страницы книги -->
  <path d="M50,60 C50,60 90,50 100,50 C110,50 150,60 150,60 L150,180 C150,180 110,170 100,170 C90,170 50,180 50,180 Z" 
        fill="#FFFFFF" stroke="#BDBDBD" stroke-width="1"/>
  
  <!-- Закрытые страницы на обрезе -->
  <path d="M100,50 v120" stroke="#BDBDBD" stroke-width="1"/>
  <path d="M55,180 L145,180" stroke="#BDBDBD" stroke-width="1"/>
  
  <!-- Магические руны на обложке -->
  <circle cx="100" cy="100" r="25" fill="#7C4DFF" stroke="#4527A0" stroke-width="2"/>
  <path d="M85,100 L115,100 M100,85 L100,115" stroke="#FFFFFF" stroke-width="2"/>
  
  <!-- Пентаграмма внутри круга -->
  <path d="M100,85 L107,107 L93,93 L107,93 L93,107 Z" fill="none" stroke="#FFFFFF" stroke-width="2"/>
  
  <!-- Декоративные узоры на обложке -->
  <rect x="60" y="140" width="80" height="5" rx="2" ry="2" fill="#7E57C2"/>
  <rect x="70" y="150" width="60" height="5" rx="2" ry="2" fill="#7E57C2"/>
  
  <!-- Закладка -->
  <path d="M90,170 L90,190 L100,180 L110,190 L110,170" fill="#FF9800" stroke="#E65100" stroke-width="1"/>
  
  <!-- Золотое тиснение углов -->
  <path d="M45,55 L60,55 L45,70 Z" fill="#FFD700" stroke="#FFC107" stroke-width="1"/>
  <path d="M155,55 L140,55 L155,70 Z" fill="#FFD700" stroke="#FFC107" stroke-width="1"/>
  <path d="M45,185 L60,185 L45,170 Z" fill="#FFD700" stroke="#FFC107" stroke-width="1"/>
  <path d="M155,185 L140,185 L155,170 Z" fill="#FFD700" stroke="#FFC107" stroke-width="1"/>
</svg> 