<svg xmlns="http://www.w3.org/2000/svg" width="200" height="200" viewBox="0 0 200 200">
  <!-- Фон -->
  <rect width="200" height="200" fill="#f5f0ff" rx="10" ry="10"/>
  
  <!-- Колба -->
  <path d="M80,40 v30 c0,0 -20,10 -20,40 v40 c0,10 10,20 40,20 h0 c30,0 40,-10 40,-20 v-40 c0,-30 -20,-40 -20,-40 v-30 z" 
        fill="#d1c4e9" stroke="#7e57c2" stroke-width="2"/>
  
  <!-- Горлышко колбы -->
  <rect x="80" y="30" width="40" height="20" fill="#d1c4e9" stroke="#7e57c2" stroke-width="2" rx="5" ry="5"/>
  
  <!-- Пробка -->
  <ellipse cx="100" cy="30" rx="15" ry="7" fill="#a1887f" stroke="#795548" stroke-width="2"/>
  
  <!-- Жидкость внутри -->
  <path d="M85,70 v80 c0,5 5,10 15,10 h0 c10,0 15,-5 15,-10 v-80 c0,0 -10,5 -15,5 -5,0 -15,-5 -15,-5 z" 
        fill="#b39ddb" fill-opacity="0.8"/>
  
  <!-- Блики -->
  <ellipse cx="90" cy="90" rx="6" ry="12" fill="#ede7f6" fill-opacity="0.6"/>
  <circle cx="95" cy="120" r="5" fill="#ede7f6" fill-opacity="0.4"/>
  
  <!-- Пузырьки -->
  <circle cx="105" cy="140" r="3" fill="#ede7f6"/>
  <circle cx="110" cy="120" r="2" fill="#ede7f6"/>
  <circle cx="108" cy="100" r="2.5" fill="#ede7f6"/>
</svg> 