<?xml version="1.0" encoding="UTF-8" standalone="no"?>
<svg xmlns="http://www.w3.org/2000/svg" width="800" height="600" viewBox="0 0 800 600">
  <defs>
    <linearGradient id="skyGradient" x1="0%" y1="0%" x2="0%" y2="100%">
      <stop offset="0%" style="stop-color:#1a103c;stop-opacity:1" />
      <stop offset="100%" style="stop-color:#2c1d54;stop-opacity:1" />
    </linearGradient>
    <linearGradient id="dragonGradient" x1="0%" y1="0%" x2="100%" y2="100%">
      <stop offset="0%" style="stop-color:#8B0000;stop-opacity:1" />
      <stop offset="100%" style="stop-color:#FF4500;stop-opacity:1" />
    </linearGradient>
    <linearGradient id="armorGradient" x1="0%" y1="0%" x2="100%" y2="100%">
      <stop offset="0%" style="stop-color:#C0C0C0;stop-opacity:1" />
      <stop offset="100%" style="stop-color:#778899;stop-opacity:1" />
    </linearGradient>
    <filter id="fireGlow" x="-20%" y="-20%" width="140%" height="140%">
      <feGaussianBlur stdDeviation="10" result="blur" />
      <feComposite in="SourceGraphic" in2="blur" operator="over" />
    </filter>
  </defs>
  
  <!-- Background -->
  <rect width="800" height="600" fill="url(#skyGradient)" />
  
  <!-- Mountains -->
  <polygon points="0,400 200,200 350,300 500,150 650,250 800,180 800,600 0,600" 
           fill="#2c1d54" stroke="#2c1d54" stroke-width="2" />
  
  <!-- Dragon -->
  <g transform="translate(500,300) scale(0.8) rotate(10)">
    <!-- Dragon Body -->
    <ellipse cx="100" cy="100" rx="100" ry="40" fill="url(#dragonGradient)" />
    <!-- Dragon Neck -->
    <path d="M180,80 Q250,10 300,50" stroke="url(#dragonGradient)" stroke-width="30" fill="none" />
    <!-- Dragon Head -->
    <ellipse cx="310" cy="50" rx="40" ry="25" fill="url(#dragonGradient)" />
    <!-- Dragon Tail -->
    <path d="M0,110 Q-50,130 -100,90" stroke="url(#dragonGradient)" stroke-width="25" fill="none" />
    <!-- Dragon Wings -->
    <path d="M100,80 Q150,0 200,30 Q170,40 140,60 Z" fill="#FF6347" stroke="#8B0000" stroke-width="2" />
    <path d="M80,80 Q30,10 0,40 Q40,50 60,60 Z" fill="#FF6347" stroke="#8B0000" stroke-width="2" />
    <!-- Dragon Eye -->
    <circle cx="325" cy="45" r="5" fill="#FFFF00" />
    <!-- Dragon Fire -->
    <path d="M350,50 Q400,30 450,60 Q410,50 460,70 Q420,60 470,50" 
          fill="#FF4500" stroke="#FF8C00" stroke-width="2" filter="url(#fireGlow)" opacity="0.8" />
  </g>
  
  <!-- Knight -->
  <g transform="translate(250,350) scale(0.6)">
    <!-- Knight Body -->
    <rect x="50" y="100" width="60" height="100" fill="url(#armorGradient)" />
    <!-- Knight Head/Helmet -->
    <circle cx="80" cy="70" r="30" fill="url(#armorGradient)" />
    <rect x="50" y="70" width="60" height="20" fill="url(#armorGradient)" />
    <rect x="65" y="40" width="30" height="10" fill="#778899" />
    <!-- Knight Legs -->
    <rect x="60" y="200" width="15" height="60" fill="#4B4B4B" />
    <rect x="85" y="200" width="15" height="60" fill="#4B4B4B" />
    <!-- Knight Arms -->
    <rect x="20" y="110" width="30" height="15" fill="url(#armorGradient)" />
    <rect x="110" y="110" width="60" height="15" fill="url(#armorGradient)" transform="rotate(20, 110, 110)" />
    <!-- Knight Sword -->
    <rect x="160" y="90" width="80" height="8" fill="#C0C0C0" transform="rotate(20, 160, 90)" />
    <rect x="160" y="88" width="15" height="12" fill="#FFD700" transform="rotate(20, 160, 90)" />
    <!-- Knight Shield -->
    <path d="M30,130 h-30 v50 l15,15 l15,-15 Z" fill="#4B0082" stroke="#C0C0C0" stroke-width="3" />
    <path d="M15,140 v30 M0,155 h30" stroke="#C0C0C0" stroke-width="2" />
  </g>
  
  <!-- Text -->
  <text x="400" y="100" font-family="Cinzel, serif" font-size="36" font-weight="bold" fill="#e9c46a" text-anchor="middle" stroke="#000" stroke-width="1">
    С нами вы всегда будете готовы!
  </text>
</svg> 